<svg xmlns="http://www.w3.org/2000/svg" version="1.1" viewBox="1 0.4 153 139.59"><path d="M 22.500 0.575 C 18.334 1.153, 9.237 2.969, 4.750 4.117 L 1 5.077 1 69.652 L 1 134.227 3.750 133.695 C 5.262 133.403, 8.525 132.580, 11 131.866 C 14.045 130.989, 21.807 130.592, 35 130.639 C 51.616 130.699, 56.719 131.109, 69.500 133.411 C 92 137.464, 111.546 139.984, 120.500 139.988 C 129.670 139.992, 145.520 137.645, 150.569 135.536 L 154 134.102 154 70.051 C 154 31.678, 153.631 6, 153.079 6 C 152.572 6, 148.185 6.953, 143.329 8.119 C 136.390 9.784, 131.431 10.229, 120.166 10.196 C 106.795 10.157, 101.797 9.603, 78 5.516 C 56.681 1.855, 49.190 0.932, 37.756 0.558 C 31.015 0.338, 24.150 0.345, 22.500 0.575 M 13 8.287 L 7.500 9.500 7.242 67.860 C 6.997 123.195, 7.075 126.185, 8.742 125.539 C 9.709 125.164, 15.560 124.349, 21.744 123.728 C 34.537 122.442, 51.711 123.606, 70.500 127.032 C 103.885 133.120, 127.189 134.640, 141.500 131.666 L 147.500 130.418 147.758 72.090 L 148.016 13.762 145.758 14.383 C 131.238 18.370, 111.144 17.642, 78.500 11.946 C 57.582 8.296, 52.189 7.714, 36.500 7.416 C 24.835 7.195, 16.564 7.501, 13 8.287 M 26 28.500 L 26 39 28.948 39 C 31.799 39, 31.905 38.828, 32.198 33.750 L 32.500 28.500 36.463 33.750 C 39.217 37.397, 41.125 39, 42.713 39 C 44.950 39, 45 38.772, 45 28.500 C 45 18.026, 44.994 18, 42.552 18 C 40.305 18, 40.080 18.430, 39.802 23.235 L 39.500 28.470 35.500 23.278 C 32.432 19.295, 30.859 18.075, 28.750 18.043 L 26 18 26 28.500 M 115.008 29.862 C 111.950 30.751, 109.901 34.535, 110.928 37.395 C 111.627 39.341, 115.987 42.151, 120.313 43.444 C 121.311 43.742, 121.847 44.439, 121.504 44.993 C 120.701 46.292, 116.408 46.289, 113.976 44.987 C 112.483 44.188, 111.864 44.385, 111.042 45.922 C 109.595 48.626, 109.619 48.672, 113.149 49.902 C 120.880 52.597, 127 50.239, 127 44.566 C 127 40.808, 125.802 39.476, 121.494 38.443 C 114.882 36.856, 114.584 33.358, 121.151 34.408 C 124.181 34.893, 125.186 34.679, 125.658 33.449 C 125.992 32.578, 125.868 31.481, 125.383 31.011 C 124.058 29.728, 117.839 29.039, 115.008 29.862 M 27 99.500 L 27 110 29.500 110 C 31.500 110, 32 109.500, 32 107.500 C 32 104.191, 35.200 104.137, 36.955 107.416 C 38.157 109.662, 40.645 110.954, 43.832 110.986 C 44.793 110.996, 44.594 110.079, 43.113 107.683 C 41.331 104.799, 41.251 104.178, 42.500 102.929 C 43.966 101.462, 44.440 99.264, 44.158 95.235 C 43.919 91.820, 38.547 89.008, 32.250 89.004 L 27 89 27 99.500 M 32.362 95.500 C 31.401 98.004, 32.793 100, 35.500 100 C 38.473 100, 39.775 97.639, 37.989 95.487 C 36.394 93.565, 33.101 93.573, 32.362 95.500 M 116 111.434 L 116 122 119.035 122 L 122.070 122 121.785 111.750 L 121.500 101.500 118.750 101.184 L 116 100.867 116 111.434" stroke="none" fill="#213476" fill-rule="evenodd"/><path d="M 65 31.833 C 65 43.842, 64.753 53.914, 64.451 54.216 C 64.149 54.518, 62.011 54.285, 59.701 53.698 C 53.358 52.087, 15.382 52.188, 10.750 53.828 L 7 55.155 7 68.194 L 7 81.233 9.250 80.606 C 16.970 78.456, 32.839 77.700, 45.860 78.862 C 53.362 79.532, 60.737 80.339, 62.250 80.657 L 65 81.233 65 103.598 L 65 125.962 67.250 126.449 C 72.610 127.610, 86.799 130, 88.328 130 C 89.840 130, 90 127.888, 90 107.895 L 90 85.790 94.250 86.373 C 105.382 87.901, 132.403 88.247, 139.355 86.951 C 143.285 86.218, 146.838 85.705, 147.250 85.809 C 147.662 85.914, 148 79.925, 148 72.500 C 148 65.075, 147.887 59.009, 147.750 59.020 C 147.613 59.030, 143.900 59.690, 139.500 60.485 C 127.309 62.687, 106.528 62.206, 92.750 59.401 L 90 58.841 90 36.421 C 90 24.089, 89.862 14, 89.693 14 C 89.524 14, 84.487 13.100, 78.500 12 C 72.513 10.900, 67.026 10, 66.307 10 C 65.271 10, 65 14.525, 65 31.833" stroke="none" fill="#cb1f20" fill-rule="evenodd"/><path d="M 13 8.346 L 7.500 9.500 7.231 32.364 C 6.978 53.891, 7.065 55.188, 8.731 54.528 C 15.628 51.798, 50.131 51.341, 60.200 53.846 C 62.235 54.353, 64.147 54.519, 64.450 54.217 C 64.752 53.914, 65 43.872, 65 31.901 C 65 11.857, 64.858 10.090, 63.208 9.566 C 55.248 7.040, 22.970 6.255, 13 8.346 M 90 36.312 L 90 58.783 92.250 59.326 C 104.108 62.188, 131.390 62.558, 142.750 60.011 L 148 58.834 148 36.309 L 148 13.783 145.250 14.479 C 132.210 17.779, 109.178 17.745, 92.750 14.401 L 90 13.841 90 36.312 M 26 28.500 L 26 39 28.948 39 C 31.799 39, 31.905 38.828, 32.198 33.750 L 32.500 28.500 36.463 33.750 C 39.217 37.397, 41.125 39, 42.713 39 C 44.950 39, 45 38.772, 45 28.500 C 45 18.026, 44.994 18, 42.552 18 C 40.305 18, 40.080 18.430, 39.802 23.235 L 39.500 28.470 35.500 23.278 C 32.432 19.295, 30.859 18.075, 28.750 18.043 L 26 18 26 28.500 M 115.008 29.862 C 111.950 30.751, 109.901 34.535, 110.928 37.395 C 111.627 39.341, 115.987 42.151, 120.313 43.444 C 121.311 43.742, 121.847 44.439, 121.504 44.993 C 120.701 46.292, 116.408 46.289, 113.976 44.987 C 112.483 44.188, 111.864 44.385, 111.042 45.922 C 109.595 48.626, 109.619 48.672, 113.149 49.902 C 120.880 52.597, 127 50.239, 127 44.566 C 127 40.808, 125.802 39.476, 121.494 38.443 C 114.882 36.856, 114.584 33.358, 121.151 34.408 C 124.181 34.893, 125.186 34.679, 125.658 33.449 C 125.992 32.578, 125.868 31.481, 125.383 31.011 C 124.058 29.728, 117.839 29.039, 115.008 29.862 M 21 78.692 C 19.075 78.897, 15.137 79.532, 12.250 80.103 L 7 81.142 7 103.678 C 7 124.733, 7.115 126.169, 8.750 125.536 C 13.968 123.513, 33.417 122.644, 46.755 123.837 C 54.349 124.517, 61.561 125.334, 62.781 125.653 L 65 126.233 65 103.728 L 65 81.223 61.750 80.621 C 50.434 78.526, 31.142 77.613, 21 78.692 M 141 86.705 C 136.871 87.735, 130.887 87.941, 117 87.531 C 106.825 87.230, 96.579 86.714, 94.231 86.385 L 89.961 85.786 90.231 108.112 L 90.500 130.437 98 131.642 C 107.867 133.228, 133.914 133.242, 141.500 131.666 L 147.500 130.419 147.770 108.530 C 147.919 96.490, 147.694 86.346, 147.270 85.986 C 146.847 85.626, 144.025 85.949, 141 86.705 M 27 99.500 L 27 110 29.500 110 C 31.500 110, 32 109.500, 32 107.500 C 32 104.191, 35.200 104.137, 36.955 107.416 C 38.157 109.662, 40.645 110.954, 43.832 110.986 C 44.793 110.996, 44.594 110.079, 43.113 107.683 C 41.331 104.799, 41.251 104.178, 42.500 102.929 C 43.966 101.462, 44.440 99.264, 44.158 95.235 C 43.919 91.820, 38.547 89.008, 32.250 89.004 L 27 89 27 99.500 M 32.362 95.500 C 31.401 98.004, 32.793 100, 35.500 100 C 38.473 100, 39.775 97.639, 37.989 95.487 C 36.394 93.565, 33.101 93.573, 32.362 95.500 M 116 111.434 L 116 122 119.035 122 L 122.070 122 121.785 111.750 L 121.500 101.500 118.750 101.184 L 116 100.867 116 111.434" stroke="none" fill="#f8f6f8" fill-rule="evenodd"/></svg>